<?xml version="1.0" standalone="no"?>
<!DOCTYPE svg PUBLIC "-//W3C//DTD SVG 20010904//EN"
 "http://www.w3.org/TR/2001/REC-SVG-20010904/DTD/svg10.dtd">
<svg version="1.0" xmlns="http://www.w3.org/2000/svg"
 width="32.000000pt" height="32.000000pt" viewBox="0 0 32.000000 32.000000"
 preserveAspectRatio="xMidYMid meet">

<g transform="translate(0.000000,32.000000) scale(0.100000,-0.100000)"
fill="#000000" stroke="none">
<path d="M55 279 c-65 -57 -71 -149 -14 -214 57 -65 149 -71 214 -13 49 43 46
56 -12 51 -90 -9 -160 66 -148 160 3 26 3 47 1 47 -3 0 -21 -14 -41 -31z"/>
<path d="M280 260 c12 -7 12 -12 2 -22 -19 -19 -14 -28 16 -27 23 0 24 2 8 8
-14 5 -16 10 -8 15 20 12 13 36 -10 36 -18 0 -20 -2 -8 -10z"/>
<path d="M149 251 c9 -6 10 -11 2 -15 -20 -13 -11 -26 17 -25 18 1 21 3 9 6
-18 5 -18 6 -1 24 16 18 16 19 -12 19 -20 0 -25 -3 -15 -9z"/>
<path d="M218 213 c10 -4 10 -8 1 -19 -6 -8 -7 -14 -3 -14 5 0 15 9 22 20 11
18 10 20 -10 19 -13 0 -17 -3 -10 -6z"/>
</g>
</svg>
