<?xml version="1.0" standalone="no"?>
<!DOCTYPE svg PUBLIC "-//W3C//DTD SVG 20010904//EN"
 "http://www.w3.org/TR/2001/REC-SVG-20010904/DTD/svg10.dtd">
<svg version="1.0" xmlns="http://www.w3.org/2000/svg"
 width="32.000000pt" height="32.000000pt" viewBox="0 0 32.000000 32.000000"
 preserveAspectRatio="xMidYMid meet">

<g transform="translate(0.000000,32.000000) scale(0.100000,-0.100000)"
fill="#000000" stroke="none">
<path d="M150 290 c-19 -11 -52 -19 -72 -20 -64 0 -78 -26 -78 -140 0 -61 4
-100 12 -108 17 -17 279 -17 296 0 8 8 12 47 12 108 0 83 -3 99 -20 118 -12
12 -26 22 -33 22 -7 0 -18 9 -25 20 -15 25 -47 25 -92 0z m75 0 c9 -14 -92
-62 -123 -58 -24 3 -21 7 33 35 64 34 80 38 90 23z m25 -46 c0 -9 -11 -14 -35
-14 -42 0 -44 5 -8 24 30 15 43 13 43 -10z m-175 7 c-6 -5 -21 -12 -35 -15
-24 -7 -24 -6 -6 8 21 17 57 23 41 7z m225 -16 c0 -12 -29 -3 -34 10 -4 13 -2
14 14 5 11 -6 20 -13 20 -15z m0 -34 c15 -28 13 -31 -20 -31 -29 0 -70 -29
-70 -50 0 -21 41 -50 70 -50 33 0 35 -3 20 -31 -10 -17 -22 -19 -140 -19 -151
0 -150 0 -150 100 0 100 -1 100 150 100 118 0 130 -2 140 -19z m0 -81 c0 -27
-3 -30 -30 -30 -32 0 -47 18 -36 45 3 9 18 15 36 15 27 0 30 -3 30 -30z"/>
<path d="M244 129 c-10 -17 13 -36 27 -22 12 12 4 33 -11 33 -5 0 -12 -5 -16
-11z"/>
</g>
</svg>
