<svg width="40" height="40" viewBox="0 0 40 40" fill="none" xmlns="http://www.w3.org/2000/svg">
<g clip-path="url(#clip0_1_4)">
<path d="M40 0H0V40H40V0Z" fill="#60A1E4"/>
<g clip-path="url(#clip1_1_4)">
<g clip-path="url(#clip2_1_4)">
<path d="M25.2132 7.8382C25.2751 7.8382 25.7702 8.08574 26.0486 8.17858C25.9558 8.20955 25.7392 8.11671 25.4917 8.02388C25.5535 8.02388 25.6774 8.05485 25.8011 8.11663C25.7392 8.05476 25.2751 7.90006 25.2132 7.8382ZM20.6033 6.87911C20.6962 6.84814 21.779 7.00284 22.274 7.03381C22.305 7.00284 22.2122 7.00284 22.0884 6.97195C22.2431 6.94098 22.5525 7.03381 22.769 7.0647C22.1193 7.09568 21.4077 6.91 20.789 6.97195C20.5724 6.97195 20.7271 6.91009 20.6033 6.87911M19.7061 6.87911C20.263 6.87911 20.6961 6.87911 19.8917 6.94098C19.7988 6.91 19.6751 6.91 19.7061 6.87911ZM28.4619 9.44706C28.5237 9.44706 28.7713 9.72549 28.895 9.81833C28.864 9.8493 28.6166 9.60176 28.4928 9.50893C28.5238 9.5399 28.4928 9.50893 28.4619 9.44706ZM27.8431 9.04483C27.5955 8.82826 27.5028 8.82826 27.4718 8.70454C27.6884 8.82826 27.8431 8.95208 27.8431 9.04483ZM23.8519 7.09568C23.8829 7.0647 23.9448 7.12665 24.0995 7.15754C23.9138 7.12656 23.9448 7.15754 24.0066 7.2194C23.7901 7.18843 23.7282 7.15754 23.7901 7.09568C23.9138 7.15754 23.9448 7.12665 23.8519 7.09568ZM15.0652 7.46694C15.0652 7.43596 15.1889 7.3741 15.2817 7.34321C15.1889 7.40508 15.2199 7.43605 15.3746 7.3741C15.3746 7.40508 15.1889 7.46694 15.0652 7.5288C15.127 7.49783 15.1889 7.40508 15.0652 7.46694ZM24.4707 6.78628C24.3779 6.81725 24.0376 6.63158 23.6972 6.56971C23.5115 6.50785 24.4397 6.72441 24.4707 6.78628ZM6.21656 22.0703C6.40224 22.8438 6.27842 22.8128 6.21656 22.0703ZM6.24754 17.4293C6.27851 17.3056 6.3094 16.9652 6.34029 16.9962C6.24745 17.7387 6.09275 18.0791 6.06186 18.636C6.1547 18.141 6.03089 18.9144 6 19.1001C6.03097 19.3476 6.03097 18.9454 6.09284 19.0073C6.1547 19.1002 5.96911 20.3996 6.03097 19.688C5.96911 20.3377 6.03097 21.0493 6.1547 21.2349C6 22.225 6.7735 24.4525 6.9282 24.9166C6.95917 24.9476 6.9282 24.7619 6.99006 24.8857C7.05192 25.288 7.33035 25.5664 7.42319 25.9995C7.51602 26.1233 7.88729 26.8039 7.94915 26.9587C8.07287 27.2062 8.13482 27.1753 8.25855 27.4227C8.62981 28.1344 9.21764 28.815 9.77457 29.4647C11.569 31.5686 14.3226 33.3011 17.3857 33.92C20.4487 34.5697 23.6663 34.1057 26.1723 32.899C26.327 32.8061 26.2961 32.7753 26.4817 32.7133C27.3481 32.4349 28.4 31.5377 28.9878 31.1973C29.2662 30.8879 30.0089 30.3619 30.1017 30.0526C30.6277 29.6195 31.1536 28.9079 31.4321 28.4438C31.5868 28.1962 31.7105 28.1962 31.7723 28.0415C31.7414 28.0415 32.2673 27.3918 32.4221 27.0206C32.3603 27.0206 32.2674 27.2062 32.2674 27.0206C33.3812 24.8857 34 22.0084 33.6596 20.0283C33.7215 22.4725 33.1027 25.1951 31.927 26.9277C31.4011 28.0415 30.3182 29.2481 29.3282 30.1145C29.1735 30.2692 29.0188 30.4548 28.8331 30.5786C28.2453 31.0736 27.5955 31.4758 26.9149 31.8471C25.3061 32.7443 23.5116 33.5178 21.4077 33.5487C25.0276 33.2393 28.2762 31.4138 30.0707 29.1863C28.7094 30.5166 28.1216 31.0426 26.6056 31.8161C26.4818 32.0326 25.4608 32.4658 24.7801 32.6515C25.1824 32.4658 26.0177 32.1565 26.2961 31.9089C24.0376 32.9918 21.5315 33.6106 19.1801 33.2703C20.0774 33.2703 21.3458 33.3012 22.5525 33.0847C22.7381 33.0228 22.8309 32.9609 23.0475 32.93C25.3989 32.404 27.6575 31.2592 29.2663 29.6504C28.3381 30.4857 26.9459 31.4758 26.0486 31.7852C26.884 31.3211 28.4 30.4239 28.895 29.7432C27.9049 30.7333 26.0486 31.7233 24.873 32.1565C24.6873 32.1874 24.9967 32.0327 24.6873 32.1565C24.316 32.2493 24.4707 32.2493 24.3779 32.3112C22.9547 32.7134 21.3149 33.0537 19.9536 32.93C19.7061 32.899 19.6133 32.8371 19.3967 32.8371C19.1491 32.8061 18.9326 32.8061 18.6542 32.8061C17.5713 32.6824 16.3956 32.2492 15.5293 31.878C15.0652 31.6615 14.6011 31.5068 14.137 31.2283C13.7657 31.0117 13.4563 30.7642 13.147 30.5167C11.9713 29.6504 10.9813 28.7841 10.053 27.5465C8.38227 25.2261 7.51602 22.3178 7.63975 19.4404C7.76347 16.5631 8.90824 13.7476 10.7337 11.6746C10.6408 11.7675 10.8574 11.4581 11.0431 11.2725C11.0431 11.3344 11.0121 11.4272 11.2287 11.2106C11.4144 10.9941 11.1669 11.1488 11.2596 11.025C13.1779 8.9211 16.5193 7.2194 19.9536 7.15754C20.0773 7.0647 20.2939 6.94098 20.5415 7.00284C20.5415 7.03381 20.3867 7.03381 20.3867 7.03381C20.727 7.00284 21.0364 7.00284 21.1911 7.0647C21.2221 7.03373 21.0674 7.00284 21.1911 7.00284C21.4077 7.0647 21.4696 7.00284 21.5934 7.0647C21.5005 7.0647 21.4077 7.0647 21.3458 7.09568C22.1193 7.09568 22.6143 7.28135 23.3878 7.34321C22.9856 7.25038 22.8928 7.25038 22.5834 7.15754C22.9237 7.2194 23.0784 7.28126 23.2331 7.25038C23.1713 7.25038 23.2021 7.15754 23.2641 7.18851C23.8829 7.34321 23.9448 7.40508 24.5944 7.62164C24.6563 7.55978 24.316 7.5288 24.2232 7.43596C24.842 7.65253 25.3988 7.80723 25.7702 8.05476C25.6465 7.96193 25.2752 7.8382 24.9967 7.71448C24.9657 7.74545 25.0895 7.77634 25.1204 7.8382C24.811 7.6835 24.3779 7.5288 23.9448 7.46694C24.316 7.55978 24.5636 7.6835 24.7183 7.74536C24.378 7.6835 23.9448 7.46694 23.4497 7.3741C24.2541 7.62164 25.7701 8.17849 26.6983 8.67356C26.358 8.457 25.9558 8.3023 25.7392 8.17858C25.9249 8.20955 26.1414 8.33328 26.1414 8.27133C26.358 8.36416 26.6364 8.58073 26.7911 8.6117C26.5127 8.42603 25.9558 8.1476 25.7702 8.05476C28.0906 9.10669 30.1636 10.8703 31.4939 13.1288C31.6176 13.3454 31.8033 13.8404 31.958 13.9023C31.927 13.7476 31.8033 13.6548 31.6796 13.4073C31.7414 13.4073 31.7414 13.3145 31.6796 13.2216C31.5559 13.0669 31.6796 13.3454 31.5558 13.1907C30.9988 12.1696 30.3182 11.2724 29.2663 10.2824C29.8542 10.8394 29.421 10.4371 29.2972 10.2515C30.1016 10.9631 31.0298 12.1697 31.4321 12.7885C31.3702 12.6957 31.3392 12.6338 31.3702 12.6338C32.1127 13.9023 32.5768 15.0471 33.0409 16.6868C33.0719 16.7178 33.0409 16.5631 33.1028 16.6559C33.4122 17.9554 33.505 19.0383 33.474 20.0283C33.7216 18.3575 33.1646 15.7586 32.1746 13.7166C32.0508 13.4691 32.0508 13.6548 31.927 13.3763C31.927 13.2835 31.8342 13.0979 31.7723 12.9741C30.5347 10.9321 29.0187 9.47795 27.2243 8.33328C27.348 8.39514 27.5955 8.58081 27.5956 8.54984C24.2542 6.35315 20.3867 6.04375 17.2 6.72441C16.9834 6.81725 16.8906 6.91009 16.6431 7.03381C17.1072 6.87911 17.3856 6.84814 17.8188 6.7553C17.9116 6.66246 17.4166 6.78628 17.6331 6.69344C17.6641 6.72441 18.0662 6.63158 18.1591 6.66255C18.1591 6.69353 18.0354 6.72441 18.0044 6.7553C19.0254 6.53874 20.0773 6.50776 20.9746 6.56971C20.4486 6.60069 19.4895 6.50785 19.1801 6.66255C19.4895 6.63158 19.9227 6.60069 20.2011 6.63158C19.8298 6.63158 19.1492 6.66255 18.8398 6.69344C18.8088 6.66246 19.3347 6.6006 18.9944 6.60069C18.8397 6.63166 18.5922 6.63166 18.4995 6.72441C15.8387 6.97195 13.2397 8.36416 11.4143 10.004C11.0431 10.3134 10.6099 10.6537 10.3315 10.994C9.65085 11.7675 9.21772 12.541 8.72265 13.2216C9.03205 12.572 9.71271 11.5819 10.5171 10.7465C11.3215 9.91116 12.1878 9.19953 12.6519 8.82826C12.6519 8.95199 13.3945 8.36416 13.673 8.17858C13.4873 8.33328 13.7967 8.11671 13.8585 8.1476C14.8486 7.55978 15.653 7.34321 16.5503 7.00284C16.3337 7.0647 16.1481 7.12656 16.1171 7.09568C16.3337 7.03381 16.4574 6.97195 16.4265 6.94098C15.5602 7.18851 14.1988 7.77634 13.116 8.42603C15.0652 7.09568 17.5404 6.2912 19.9845 6.26031C22.4287 6.19845 24.811 6.81725 26.6983 7.80731C27.9668 8.36425 29.1734 9.3852 30.1326 10.3753C30.411 10.6228 30.1945 10.3134 30.5967 10.7465C30.473 10.6847 30.3801 10.6228 30.5348 10.8084C30.7824 11.0868 30.473 10.5918 30.8751 11.0868C30.8441 11.0868 30.7204 10.9321 30.7204 10.994C31.8033 11.9531 32.6387 13.6857 33.1337 14.8305C33.0099 14.3664 32.7005 13.7167 32.453 13.2526C33.1955 14.6139 33.4431 15.4183 33.7525 16.625C33.8762 16.7178 33.6906 16.1918 33.8143 16.4394C33.8453 16.625 33.8762 17.2129 34 17.3056C33.9072 16.7178 33.7525 16.0062 33.6287 15.8824C33.7216 15.9443 33.474 15.1708 33.3193 14.9852C33.2575 14.4902 32.8244 13.6239 32.453 12.9741C31.1227 10.3752 28.7403 8.24044 26.0796 7.0647C26.0796 7.00284 25.9249 6.94098 25.8629 6.87911C23.2331 5.76533 20.0773 5.45593 17.0453 6.16748C13.9823 6.91 11.105 8.67356 9.06294 11.2106C9.15578 10.9012 9.92927 10.3134 9.96025 10.0659C9.06302 11.025 8.10394 12.2935 7.45416 13.6548C6.7735 15.0161 6.40224 16.4084 6.24754 17.4293" fill="white"/>
<g clip-path="url(#clip3_1_4)">
<g clip-path="url(#clip4_1_4)">
<g clip-path="url(#clip5_1_4)">
<g clip-path="url(#clip6_1_4)">
<g clip-path="url(#clip7_1_4)">
<g clip-path="url(#clip8_1_4)">
<path d="M19.9979 24.6377C22.5591 24.6377 24.6354 22.5614 24.6354 20.0002C24.6354 17.439 22.5591 15.3627 19.9979 15.3627C17.4366 15.3627 15.3604 17.439 15.3604 20.0002C15.3604 22.5614 17.4366 24.6377 19.9979 24.6377Z" fill="#0954AF"/>
<g clip-path="url(#clip9_1_4)">
<path d="M21.7251 19.0847C21.7033 19.0866 21.6859 19.1013 21.6854 19.1228C21.6851 19.1371 21.6742 19.473 21.3281 19.473C20.9843 19.473 20.9789 19.1378 20.9788 19.1236C20.9787 19.1133 20.9747 19.1035 20.9674 19.0963C20.9602 19.089 20.9504 19.0849 20.9402 19.0848H20.9399C20.9297 19.0848 20.9199 19.0887 20.9127 19.0959C20.9054 19.103 20.9012 19.1126 20.901 19.1228C20.9007 19.1371 20.8897 19.473 20.5436 19.473C20.1998 19.473 20.1944 19.1378 20.1943 19.1236C20.1943 19.1133 20.1902 19.1035 20.183 19.0963C20.1758 19.089 20.166 19.0849 20.1557 19.0848H20.1554C20.1452 19.0848 20.1355 19.0887 20.1282 19.0959C20.1209 19.103 20.1167 19.1126 20.1165 19.1228C20.1162 19.1371 20.1053 19.473 19.7672 19.473C19.4305 19.473 19.4183 19.1371 19.4179 19.1228C19.4177 19.1127 19.4135 19.103 19.4062 19.0959C19.3989 19.0888 19.3892 19.0849 19.379 19.0848H19.3786C19.3683 19.085 19.3585 19.0891 19.3514 19.0964C19.3442 19.1037 19.3401 19.1135 19.3401 19.1237C19.3401 19.1379 19.3362 19.471 18.9929 19.471C18.6511 19.471 18.6457 19.1378 18.6456 19.1237C18.6456 19.1134 18.6415 19.1035 18.6342 19.0963C18.6269 19.089 18.6171 19.0849 18.6068 19.0848H18.6067C18.5965 19.0848 18.5866 19.0889 18.5794 19.0961C18.5721 19.1033 18.5679 19.113 18.5678 19.1233C18.5676 19.1376 18.5601 19.473 18.2144 19.473C17.8706 19.473 17.8652 19.1379 17.8651 19.1237C17.8652 19.1186 17.8643 19.1135 17.8625 19.1087C17.8606 19.104 17.8578 19.0996 17.8543 19.0959C17.8507 19.0922 17.8465 19.0893 17.8418 19.0872C17.8372 19.0852 17.8321 19.0841 17.827 19.0839C17.8219 19.0838 17.8168 19.0847 17.8121 19.0866C17.8073 19.0885 17.803 19.0912 17.7993 19.0948C17.7918 19.1019 17.7875 19.1117 17.7873 19.122V19.1235C17.7873 19.1378 17.7834 19.4728 17.4461 19.4728C17.1094 19.4728 17.0971 19.1369 17.0968 19.1227C17.0966 19.1125 17.0923 19.1029 17.0851 19.0958C17.0778 19.0887 17.0681 19.0847 17.0579 19.0847H17.0578C17.0477 19.0847 17.0379 19.0887 17.0307 19.0958C17.0234 19.1029 17.0192 19.1126 17.019 19.1227C17.0187 19.1371 17.0077 19.4729 16.6535 19.4729C16.5464 19.4729 16.462 19.4423 16.4027 19.382C16.3029 19.2805 16.3042 19.1258 16.3043 19.1243C16.3044 19.1141 16.3006 19.1042 16.2935 19.0968C16.2865 19.0894 16.2768 19.0851 16.2666 19.0848C16.2439 19.0812 16.2275 19.1006 16.2265 19.1219C16.2259 19.1362 16.2066 19.4729 15.8691 19.4729C15.5332 19.4729 15.528 19.1378 15.5279 19.1235C15.5278 19.1132 15.5237 19.1034 15.5164 19.0961C15.5091 19.0888 15.4993 19.0847 15.489 19.0847H15.4889C15.4786 19.0847 15.4687 19.0888 15.4614 19.0961C15.4542 19.1034 15.4501 19.1133 15.4501 19.1236C15.4501 19.1279 15.4549 19.5507 15.8691 19.5507C16.1013 19.5507 16.21 19.4172 16.2605 19.2998C16.2783 19.3456 16.3054 19.3939 16.3467 19.4359C16.4212 19.512 16.5245 19.5506 16.6535 19.5506C16.8984 19.5506 17.0082 19.4133 17.0572 19.2945C17.1045 19.4133 17.2103 19.5506 17.4461 19.5506C17.6759 19.5506 17.7797 19.4204 17.8266 19.3038C17.8744 19.4204 17.9801 19.5506 18.2144 19.5506C18.4508 19.5506 18.5577 19.4179 18.6059 19.3005C18.653 19.4172 18.7581 19.5486 18.9929 19.5486C19.2284 19.5486 19.3334 19.4163 19.3803 19.2994C19.4286 19.417 19.5346 19.5506 19.7672 19.5506C19.9997 19.5506 20.1058 19.4171 20.1541 19.2995C20.201 19.4172 20.3064 19.5506 20.5436 19.5506C20.7812 19.5506 20.8891 19.4165 20.9382 19.2987C20.9849 19.4165 21.0904 19.5506 21.3281 19.5506C21.7496 19.5506 21.7632 19.1286 21.7632 19.1243C21.7634 19.114 21.7595 19.104 21.7524 19.0966C21.7452 19.0892 21.7354 19.0849 21.7251 19.0847V19.0847ZM17.338 16.5387C17.4016 16.5387 17.4643 16.5237 17.521 16.495C17.5777 16.4663 17.6269 16.4247 17.6647 16.3736C17.8117 16.5157 18.029 16.5732 18.2294 16.517C18.2649 16.5719 18.3136 16.6169 18.371 16.6482C18.4284 16.6794 18.4927 16.6957 18.558 16.6956C18.6618 16.6955 18.7613 16.6543 18.8347 16.5809C18.9081 16.5075 18.9494 16.4079 18.9495 16.3041C18.9496 16.2179 18.9211 16.134 18.8686 16.0656C18.816 15.9972 18.7423 15.9481 18.6589 15.926C18.6455 15.614 18.3875 15.3643 18.0722 15.3643C17.9487 15.3639 17.8282 15.4027 17.7281 15.4751C17.628 15.5476 17.5534 15.6498 17.515 15.7673C17.4599 15.7405 17.3994 15.7266 17.338 15.7266C17.1142 15.7266 16.932 15.9088 16.932 16.1326C16.932 16.3565 17.1142 16.5387 17.338 16.5387ZM17.338 15.8045C17.402 15.8045 17.4641 15.8231 17.5177 15.8583C17.5229 15.8617 17.5289 15.8638 17.5351 15.8644C17.5413 15.865 17.5476 15.8641 17.5534 15.8618C17.5592 15.8594 17.5644 15.8558 17.5685 15.851C17.5725 15.8463 17.5754 15.8407 17.5769 15.8346C17.6028 15.7228 17.6659 15.623 17.7559 15.5517C17.8459 15.4804 17.9574 15.4418 18.0722 15.4421C18.2073 15.4423 18.3368 15.4961 18.4323 15.5916C18.5278 15.6872 18.5815 15.8167 18.5816 15.9518C18.5801 15.9618 18.5826 15.972 18.5886 15.9802C18.5945 15.9884 18.6034 15.9939 18.6134 15.9957C18.6859 16.0085 18.7515 16.0465 18.7987 16.1029C18.846 16.1593 18.8718 16.2306 18.8717 16.3042C18.8716 16.3874 18.8385 16.4671 18.7797 16.5259C18.7209 16.5847 18.6412 16.6178 18.558 16.6179C18.5012 16.6179 18.4456 16.6026 18.3969 16.5734C18.3482 16.5443 18.3083 16.5024 18.2815 16.4524C18.2772 16.4443 18.2701 16.438 18.2616 16.4347C18.253 16.4313 18.2436 16.431 18.2349 16.434C18.039 16.5 17.8215 16.4385 17.6882 16.2854C17.6841 16.2807 17.6789 16.277 17.6731 16.2747C17.6673 16.2724 17.661 16.2715 17.6548 16.2722C17.6485 16.2728 17.6426 16.275 17.6374 16.2784C17.6321 16.2819 17.6278 16.2866 17.6248 16.2921C17.5964 16.3432 17.5548 16.3858 17.5044 16.4155C17.454 16.4452 17.3965 16.4608 17.338 16.4609C17.157 16.4609 17.0098 16.3137 17.0098 16.1327C17.0098 15.9517 17.157 15.8045 17.338 15.8045V15.8045ZM21.3784 21.0778C21.3788 21.0698 21.3768 21.0618 21.3725 21.055C21.3682 21.0481 21.3619 21.0428 21.3544 21.0397C21.347 21.0366 21.3388 21.0359 21.3309 21.0376C21.323 21.0394 21.3159 21.0435 21.3105 21.0495L21.0017 21.3968C20.9279 21.3402 20.7429 21.213 20.5025 21.1481L20.4869 20.9504C20.4864 20.9433 20.4839 20.9364 20.4797 20.9306C20.4755 20.9248 20.4698 20.9203 20.4632 20.9175C20.4566 20.9148 20.4493 20.9139 20.4422 20.915C20.4352 20.9161 20.4285 20.9191 20.4231 20.9237L20.2032 21.109C20.1678 21.1097 20.1324 21.1121 20.0973 21.1164C20.0944 21.1164 20.0916 21.1169 20.0887 21.1174C19.704 21.1663 19.413 21.4132 19.3995 21.4248C19.3953 21.4284 19.3919 21.433 19.3896 21.438C19.3873 21.4431 19.3861 21.4486 19.3861 21.4542C19.3861 21.4598 19.3873 21.4653 19.3896 21.4704C19.3919 21.4754 19.3953 21.48 19.3995 21.4836C19.4144 21.4965 19.7707 21.8 20.2182 21.8C20.6089 21.8 20.9299 21.5687 21.0151 21.5014L21.3744 21.8416C21.3805 21.8474 21.3883 21.851 21.3966 21.852C21.4049 21.853 21.4134 21.8513 21.4206 21.8471C21.4279 21.843 21.4336 21.8365 21.437 21.8288C21.4403 21.8211 21.441 21.8126 21.4391 21.8044L21.3548 21.4485L21.3784 21.0778V21.0778ZM20.4231 21.1297C20.3884 21.1228 20.3534 21.1176 20.3183 21.114L20.4154 21.0322L20.4231 21.1297ZM20.0722 21.1984C20.1 21.2657 20.1154 21.343 20.1154 21.4249C20.1154 21.5298 20.0893 21.6299 20.0448 21.7059C19.7834 21.6579 19.5708 21.5163 19.4878 21.4544C19.5737 21.3903 19.7983 21.2411 20.0722 21.1984ZM20.2182 21.7224C20.1874 21.7224 20.1571 21.7203 20.1272 21.7173C20.1694 21.6336 20.1933 21.5327 20.1933 21.4249C20.1933 21.3409 20.1788 21.2607 20.1522 21.1889C20.174 21.1873 20.196 21.1864 20.2182 21.1864C20.5564 21.1864 20.8477 21.3793 20.9484 21.4544C20.8477 21.5295 20.5564 21.7224 20.2182 21.7224V21.7224ZM21.0655 21.4422L21.2935 21.1857L21.2767 21.4495C21.2765 21.4534 21.2768 21.4572 21.2777 21.461L21.3333 21.6957L21.0655 21.4422V21.4422ZM19.0202 20.1949C19.0207 20.1869 19.0187 20.1788 19.0144 20.1719C19.0101 20.165 19.0038 20.1597 18.9963 20.1566C18.9888 20.1535 18.9806 20.1528 18.9727 20.1546C18.9648 20.1564 18.9577 20.1606 18.9522 20.1666L18.6435 20.514C18.5697 20.4574 18.3846 20.3302 18.1444 20.2654L18.1288 20.0676C18.1282 20.0605 18.1257 20.0537 18.1215 20.0479C18.1173 20.0421 18.1116 20.0375 18.105 20.0348C18.0984 20.032 18.0912 20.0311 18.0841 20.0322C18.077 20.0333 18.0704 20.0363 18.0649 20.041L17.845 20.2263C17.8095 20.2269 17.7742 20.2294 17.7391 20.2337C17.7362 20.2336 17.7334 20.2342 17.7305 20.2347C17.3457 20.2836 17.0547 20.5305 17.0412 20.5421C17.037 20.5458 17.0336 20.5503 17.0313 20.5554C17.0289 20.5604 17.0277 20.566 17.0277 20.5715C17.0277 20.5771 17.0289 20.5826 17.0313 20.5877C17.0336 20.5928 17.037 20.5973 17.0412 20.6009C17.0561 20.6139 17.4124 20.9173 17.8599 20.9173C18.2506 20.9173 18.5718 20.686 18.6569 20.6187L19.0161 20.9589C19.0222 20.9647 19.03 20.9684 19.0383 20.9694C19.0466 20.9704 19.0551 20.9687 19.0623 20.9645C19.0696 20.9603 19.0753 20.9539 19.0787 20.9462C19.082 20.9385 19.0827 20.9299 19.0808 20.9218L18.9966 20.5658L19.0202 20.1949V20.1949ZM18.0648 20.2468C18.0301 20.2399 17.9951 20.2347 17.96 20.2311L18.0571 20.1493L18.0648 20.2468ZM17.7139 20.3155C17.7419 20.3829 17.7573 20.4602 17.7573 20.542C17.7573 20.6469 17.7311 20.7469 17.6866 20.823C17.4252 20.775 17.2126 20.6334 17.1297 20.5715C17.2155 20.5074 17.4401 20.3582 17.7139 20.3155V20.3155ZM17.86 20.8395C17.8292 20.8395 17.7989 20.8374 17.7689 20.8345C17.8112 20.7507 17.8351 20.6498 17.8351 20.542C17.8354 20.4616 17.8215 20.3816 17.794 20.306C17.8158 20.3044 17.8378 20.3035 17.86 20.3035C18.1982 20.3035 18.4897 20.4964 18.5903 20.5715C18.4898 20.6467 18.1988 20.8395 17.86 20.8395V20.8395ZM18.7074 20.5593L18.9354 20.3028L18.9186 20.5666C18.9183 20.5705 18.9187 20.5743 18.9196 20.5781L18.9751 20.8129L18.7074 20.5593V20.5593ZM21.0114 15.3643C20.5949 15.3643 20.2561 15.7031 20.2561 16.1196C20.2561 16.5361 20.5949 16.8749 21.0114 16.8749C21.4279 16.8749 21.7667 16.5361 21.7667 16.1196C21.7667 15.7031 21.4279 15.3643 21.0114 15.3643V15.3643ZM21.0114 16.797C20.6378 16.797 20.3339 16.4931 20.3339 16.1196C20.3339 15.746 20.6378 15.4421 21.0114 15.4421C21.3849 15.4421 21.6889 15.746 21.6889 16.1196C21.6889 16.4931 21.385 16.797 21.0114 16.797V16.797ZM20.0762 16.4594C20.0724 16.4498 20.0649 16.4422 20.0554 16.4381C20.0459 16.4341 20.0352 16.434 20.0256 16.4378L17.4775 17.459C17.4682 17.4629 17.4607 17.4704 17.4568 17.4798C17.4529 17.4892 17.4529 17.4998 17.4566 17.5092C17.4604 17.5187 17.4678 17.5263 17.4771 17.5304C17.4864 17.5345 17.497 17.5347 17.5065 17.5312L20.0545 16.51C20.0592 16.5081 20.0636 16.5053 20.0672 16.5017C20.0709 16.4982 20.0738 16.4939 20.0758 16.4892C20.0778 16.4845 20.0789 16.4795 20.079 16.4743C20.079 16.4692 20.0781 16.4642 20.0762 16.4594V16.4594ZM20.4958 18.3453C20.504 18.3453 20.512 18.3428 20.5186 18.338C20.5253 18.3331 20.5302 18.3264 20.5328 18.3186L20.9188 17.1395C20.9219 17.1297 20.921 17.1191 20.9163 17.11C20.9116 17.1009 20.9035 17.094 20.8938 17.0908C20.8841 17.0876 20.8735 17.0884 20.8643 17.093C20.8552 17.0975 20.8482 17.1055 20.8449 17.1152L20.4589 18.2943C20.4569 18.3001 20.4564 18.3064 20.4574 18.3124C20.4583 18.3185 20.4607 18.3243 20.4643 18.3293C20.4679 18.3342 20.4727 18.3383 20.4781 18.3411C20.4836 18.3439 20.4897 18.3453 20.4958 18.3453V18.3453ZM18.8772 18.2079C18.8868 18.2079 18.896 18.2044 18.9032 18.1981L20.321 16.9345C20.3248 16.9311 20.3279 16.927 20.3301 16.9224C20.3324 16.9178 20.3337 16.9128 20.334 16.9077C20.3343 16.9026 20.3335 16.8975 20.3319 16.8927C20.3302 16.8879 20.3276 16.8834 20.3242 16.8796C20.3208 16.8758 20.3167 16.8727 20.3121 16.8704C20.3075 16.8682 20.3025 16.8669 20.2974 16.8666C20.2923 16.8663 20.2872 16.867 20.2823 16.8687C20.2775 16.8704 20.2731 16.873 20.2692 16.8764L18.8514 18.1399C18.8455 18.1452 18.8413 18.1521 18.8394 18.1597C18.8376 18.1674 18.8381 18.1755 18.8409 18.1828C18.8437 18.1902 18.8486 18.1966 18.8551 18.2011C18.8616 18.2055 18.8693 18.2079 18.8772 18.2079V18.2079ZM18.9938 15.7863C18.993 15.7966 18.9963 15.8068 19.003 15.8146C19.0096 15.8225 19.0192 15.8274 19.0294 15.8282L20.0054 15.9066C20.0105 15.907 20.0156 15.9064 20.0205 15.9048C20.0254 15.9033 20.0299 15.9008 20.0338 15.8974C20.0377 15.8941 20.0409 15.8901 20.0432 15.8855C20.0455 15.881 20.047 15.876 20.0474 15.8709C20.0478 15.8658 20.0472 15.8607 20.0456 15.8558C20.044 15.8509 20.0415 15.8464 20.0382 15.8425C20.0349 15.8386 20.0309 15.8354 20.0263 15.8331C20.0218 15.8308 20.0168 15.8293 20.0117 15.8289L19.0357 15.7506C19.0306 15.7502 19.0255 15.7508 19.0206 15.7523C19.0158 15.7539 19.0113 15.7564 19.0074 15.7597C19.0035 15.7631 19.0003 15.7671 18.9979 15.7717C18.9956 15.7762 18.9942 15.7812 18.9938 15.7863V15.7863ZM21.7243 18.1627C21.7304 18.1626 21.7364 18.1612 21.7418 18.1585C21.7472 18.1557 21.752 18.1518 21.7556 18.1469C21.7592 18.142 21.7616 18.1364 21.7627 18.1304C21.7637 18.1244 21.7634 18.1183 21.7616 18.1125L21.4385 17.0501C21.435 17.0407 21.4281 17.0331 21.4192 17.0287C21.4103 17.0242 21.4001 17.0234 21.3906 17.0263C21.3811 17.0292 21.373 17.0356 21.3681 17.0442C21.3631 17.0529 21.3617 17.063 21.364 17.0727L21.6872 18.1351C21.6896 18.1431 21.6945 18.1501 21.7012 18.155C21.7079 18.16 21.716 18.1627 21.7243 18.1627V18.1627Z" fill="#003366"/>
</g>
</g>
<path d="M12.5944 17.1869V17.1334C12.6006 17.1153 12.6097 17.1068 12.6216 17.1078C12.7986 17.1362 12.9022 17.1555 12.9325 17.1659C12.9622 17.1761 12.9736 17.1911 12.9667 17.2109C12.9625 17.223 12.9435 17.23 12.9098 17.2318C12.8755 17.2329 12.8434 17.2372 12.8132 17.2447C12.7831 17.2521 12.7631 17.2581 12.7536 17.2629C12.7447 17.2671 12.7221 17.2794 12.6857 17.2993C12.5935 17.3511 12.5309 17.4252 12.4978 17.5213C12.4647 17.6175 12.4588 17.7018 12.48 17.7741C12.5017 17.8467 12.5458 17.8944 12.6123 17.9173C12.6788 17.9401 12.7378 17.9414 12.7897 17.9212C12.8415 17.9009 12.8881 17.8663 12.9295 17.8173C12.971 17.7683 13.0122 17.7161 13.0534 17.6608C13.1632 17.5112 13.2742 17.4109 13.3864 17.3598C13.4648 17.3247 13.5485 17.3225 13.6375 17.3531C13.7825 17.4029 13.8816 17.489 13.9348 17.6111C13.988 17.7333 13.9911 17.8627 13.944 17.9994C13.9111 18.095 13.8795 18.1699 13.8493 18.224C13.8189 18.2786 13.7772 18.3309 13.7244 18.3809C13.7071 18.3953 13.646 18.3982 13.5408 18.3896C13.4351 18.3808 13.3701 18.3724 13.3459 18.364C13.3218 18.3557 13.3129 18.3423 13.3193 18.3235C13.3257 18.3049 13.3365 18.296 13.3515 18.2968C13.4922 18.2881 13.6002 18.258 13.6756 18.2065C13.7579 18.1513 13.8173 18.0707 13.8537 17.9647C13.8902 17.8586 13.8917 17.7649 13.8583 17.6834C13.8257 17.6015 13.7652 17.5454 13.6767 17.5149C13.6113 17.4925 13.5496 17.4952 13.4915 17.5231C13.4334 17.551 13.3848 17.5893 13.3459 17.638C13.2065 17.8203 13.1023 17.9409 13.0337 17.9995C12.9157 18.0996 12.7938 18.1281 12.668 18.0848C12.5422 18.0416 12.4576 17.9627 12.414 17.8481C12.3712 17.7333 12.3743 17.6047 12.4232 17.4624C12.4413 17.4097 12.4741 17.351 12.5216 17.2862C12.5696 17.2216 12.5939 17.1886 12.5944 17.1869V17.1869ZM19.4316 13.2181L19.4208 12.9465L19.4127 12.5666C19.4111 12.5271 19.407 12.4607 19.4004 12.3674C19.397 12.3251 19.3774 12.293 19.3416 12.2712C19.3053 12.2488 19.2638 12.2379 19.2174 12.2386C19.1936 12.2396 19.1811 12.227 19.1801 12.2009C19.1793 12.18 19.1994 12.1687 19.2406 12.167L19.3001 12.169L19.8351 12.1592L20.2736 12.133C20.3014 12.1319 20.316 12.1481 20.3173 12.1818C20.3177 12.1906 20.3144 12.2194 20.3077 12.2685C20.301 12.3182 20.2982 12.3567 20.2992 12.3839C20.3011 12.4309 20.2907 12.4549 20.2681 12.4558C20.2454 12.4567 20.2334 12.4397 20.232 12.4049C20.2306 12.3695 20.2168 12.3363 20.1905 12.3055C20.1643 12.274 20.1329 12.2583 20.0963 12.2586C19.9641 12.2534 19.8632 12.2523 19.7936 12.255L19.7361 12.2572C19.66 12.2603 19.6165 12.2672 19.6053 12.2782C19.584 12.2982 19.5794 12.46 19.5914 12.7635C19.5943 12.8367 19.6097 12.8735 19.6377 12.8742L19.8527 12.8656C19.9404 12.8621 19.9986 12.8569 20.0274 12.85C20.1028 12.8325 20.1445 12.7927 20.1526 12.7307C20.1556 12.7056 20.1647 12.6927 20.1798 12.6921C20.1943 12.6915 20.2031 12.6935 20.2062 12.6981C20.2093 12.702 20.2111 12.7113 20.2116 12.7258L20.2034 12.9572L20.2148 13.0902C20.2163 13.1267 20.2121 13.1452 20.2022 13.1456C20.1801 13.1465 20.1632 13.1297 20.1513 13.0953C20.1286 13.0346 20.1089 12.9996 20.0923 12.9904C20.0607 12.9707 20.0069 12.9624 19.9308 12.9654L19.7733 12.9717L19.7035 12.9727L19.6879 12.9733C19.6281 12.9757 19.5987 12.9908 19.5998 13.0187L19.608 13.334L19.6115 13.422C19.6157 13.527 19.6356 13.5844 19.6716 13.594C19.708 13.6036 19.7393 13.6079 19.7654 13.6068C19.9847 13.5981 20.1429 13.5744 20.2395 13.5356C20.3242 13.4997 20.3753 13.464 20.3931 13.4283C20.409 13.3911 20.4246 13.3722 20.4397 13.3716C20.4571 13.3709 20.4663 13.383 20.4673 13.408C20.4698 13.4706 20.441 13.5354 20.3809 13.6024C20.3201 13.6693 20.2666 13.7037 20.2201 13.7055C20.1145 13.7097 19.9953 13.7107 19.8627 13.7084C19.73 13.7062 19.6478 13.7056 19.6158 13.7069L19.3189 13.7388C19.2881 13.74 19.2724 13.7334 19.2719 13.7188L19.2708 13.6928C19.2705 13.684 19.2775 13.678 19.2919 13.6745C19.3081 13.6721 19.3324 13.6621 19.3649 13.6446C19.398 13.6276 19.419 13.593 19.4279 13.5409C19.4369 13.4893 19.4381 13.3818 19.4316 13.2181V13.2181ZM25.9776 17.4435L25.9109 17.2741L25.8311 17.1025C25.815 17.0633 25.815 17.0403 25.8311 17.0337C25.85 17.026 25.867 17.0309 25.8824 17.0484C25.9164 17.0853 25.9683 17.1083 26.0378 17.1174C26.1071 17.1273 26.3105 17.1393 26.6479 17.1535C26.9852 17.1677 27.2827 17.1812 27.5405 17.1942C27.5646 17.195 27.581 17.1979 27.5894 17.2033C27.5979 17.2086 27.6049 17.2182 27.6106 17.2322C27.6166 17.2468 27.6176 17.257 27.6139 17.2629C27.6103 17.2694 27.5951 17.2845 27.5683 17.308C27.5415 17.3315 27.5214 17.3498 27.5079 17.363C27.4942 17.3755 27.4719 17.3959 27.4408 17.4244C27.4097 17.4528 27.3639 17.4971 27.3032 17.5571C27.2422 17.6166 27.11 17.7503 26.9064 17.9581C26.7032 18.1652 26.5884 18.2839 26.5618 18.3143C26.5351 18.344 26.5157 18.378 26.5038 18.4162C26.4919 18.4543 26.4891 18.4844 26.4955 18.5062C26.5025 18.5278 26.5065 18.5467 26.5073 18.5627C26.5085 18.5792 26.501 18.5908 26.4849 18.5973C26.4645 18.6057 26.4467 18.5916 26.4317 18.5551L26.3687 18.3671L26.2833 18.1818C26.266 18.1399 26.2567 18.1123 26.2551 18.0992C26.2542 18.0863 26.2592 18.0777 26.2699 18.0733C26.2806 18.0689 26.2911 18.0708 26.3015 18.0791C26.3123 18.0873 26.3211 18.0972 26.3278 18.1089C26.3351 18.1204 26.3459 18.1294 26.3606 18.1359C26.3752 18.1425 26.3944 18.1409 26.418 18.1312C26.4416 18.1215 26.4925 18.0809 26.5704 18.0093C26.649 17.9376 26.705 17.8813 26.7385 17.8405C26.7565 17.8187 26.7567 17.7863 26.7391 17.7433L26.6342 17.4991L26.5902 17.3918C26.5651 17.3306 26.5458 17.2936 26.5325 17.2809C26.5196 17.2679 26.5001 17.2608 26.4739 17.2597C26.4485 17.2588 26.4124 17.2567 26.3658 17.2532C26.3199 17.2501 26.288 17.2481 26.27 17.2473C26.2524 17.247 26.23 17.2468 26.2029 17.2466C26.1553 17.2454 26.1179 17.2504 26.0904 17.2616C26.0635 17.2727 26.0453 17.2893 26.0355 17.3115C26.0258 17.3337 26.0236 17.355 26.0288 17.3755C26.045 17.4272 26.0424 17.4575 26.0208 17.4663C26.0111 17.4702 26.003 17.4711 25.9964 17.4687C25.99 17.467 25.9837 17.4586 25.9776 17.4435V17.4435ZM27.2693 17.2885C27.2642 17.2762 27.1734 17.2682 26.9967 17.2647C26.8209 17.2615 26.7249 17.2632 26.7088 17.2698C26.6927 17.2764 26.6849 17.2865 26.6854 17.3001C26.6862 17.3142 26.6957 17.3436 26.714 17.3882L26.7398 17.4511L26.8213 17.6428C26.8431 17.696 26.8637 17.7186 26.883 17.7107C26.9028 17.7025 26.9738 17.6345 27.096 17.5065C27.2188 17.379 27.2766 17.3063 27.2693 17.2885V17.2885ZM14.5863 22.7493L14.6201 22.791C14.6266 22.8097 14.6245 22.8223 14.6139 22.8292C14.4543 22.9168 14.3594 22.9658 14.3292 22.9763C14.299 22.9867 14.2805 22.9823 14.2739 22.963C14.2695 22.9504 14.2804 22.9329 14.3064 22.9104C14.3324 22.8879 14.3553 22.8643 14.3751 22.8397C14.3949 22.815 14.4071 22.7979 14.4118 22.7883C14.4164 22.7787 14.4268 22.7545 14.4429 22.7158C14.4843 22.6167 14.4883 22.5185 14.4547 22.4213C14.4212 22.3241 14.373 22.2532 14.3103 22.2085C14.2482 22.1642 14.1835 22.1537 14.1159 22.1769C14.0484 22.2002 14.0003 22.2362 13.9716 22.2848C13.9427 22.3329 13.9272 22.3896 13.9252 22.4548C13.9226 22.5202 13.9222 22.5876 13.924 22.6571C13.9293 22.8451 13.9032 22.9948 13.8458 23.1062C13.8048 23.183 13.7394 23.2369 13.65 23.2678C13.5028 23.3186 13.3699 23.3119 13.2513 23.2478C13.1326 23.1836 13.0494 23.0821 13.0015 22.9432C12.9681 22.8466 12.9464 22.7668 12.9364 22.7039C12.9265 22.6415 12.9272 22.574 12.9384 22.5013C12.9431 22.4794 12.9903 22.4388 13.0798 22.3797C13.1694 22.3205 13.2262 22.2868 13.2504 22.2784C13.2751 22.27 13.2906 22.2749 13.2971 22.2937C13.3038 22.3129 13.3009 22.3267 13.2885 22.3353C13.1813 22.4307 13.1139 22.5221 13.0864 22.6097C13.0549 22.7054 13.0577 22.807 13.0948 22.9147C13.1317 23.0218 13.189 23.0975 13.2664 23.1421C13.3438 23.1866 13.4273 23.1934 13.5168 23.1626C13.5827 23.1399 13.6304 23.0992 13.66 23.0404C13.6889 22.9819 13.7036 22.9211 13.7041 22.8583C13.7022 22.6249 13.7101 22.4636 13.7279 22.3745C13.7597 22.221 13.8393 22.1223 13.9667 22.0782C14.0941 22.0343 14.2109 22.0443 14.3172 22.1084C14.4232 22.1733 14.501 22.2779 14.5509 22.4223C14.5693 22.4756 14.5796 22.543 14.582 22.6245C14.5843 22.7061 14.5857 22.7476 14.5863 22.7493V22.7493ZM19.4259 27.3107L19.437 27.0356L19.4595 26.651C19.4611 26.6109 19.4624 26.5435 19.4633 26.4489C19.4633 26.4058 19.4461 26.3717 19.4116 26.3465C19.3771 26.3213 19.3362 26.3069 19.2887 26.3032C19.2649 26.3022 19.2535 26.2884 19.2546 26.2617C19.2553 26.2414 19.2767 26.232 19.3185 26.2337L19.3775 26.2404L19.9195 26.2728L20.3648 26.2821C20.3932 26.2832 20.4068 26.3009 20.4054 26.3351C20.405 26.3439 20.3991 26.3729 20.3879 26.4225C20.3772 26.4715 20.3712 26.5102 20.3701 26.5386C20.3682 26.5862 20.3556 26.6096 20.3324 26.6086C20.3097 26.6078 20.2991 26.5893 20.3006 26.5533C20.302 26.5178 20.2906 26.4833 20.2664 26.4499C20.2428 26.4164 20.2124 26.398 20.1753 26.3948C20.0422 26.379 19.9403 26.3696 19.8695 26.3667L19.8111 26.3643C19.7345 26.3613 19.69 26.3647 19.6774 26.3747C19.6545 26.393 19.6369 26.5561 19.6244 26.8643C19.6214 26.9386 19.6338 26.9772 19.6616 26.9801L19.8801 26.9889C19.9689 26.9925 20.0282 26.9917 20.0582 26.9865C20.1359 26.9751 20.1813 26.9385 20.1942 26.8769C20.1993 26.8515 20.2094 26.8392 20.2245 26.8397C20.239 26.8403 20.2476 26.843 20.2503 26.8478C20.2536 26.852 20.2549 26.8616 20.2544 26.8767L20.2267 27.1093L20.2282 27.2454C20.2267 27.2826 20.2207 27.3009 20.2102 27.3005C20.1882 27.2996 20.1727 27.281 20.1637 27.2445C20.1453 27.1816 20.1282 27.1445 20.1123 27.1335C20.0818 27.1119 20.0282 27.0995 19.9517 27.0965L19.7915 27.09L19.7201 27.0845L19.7045 27.0839C19.6436 27.0814 19.6125 27.0944 19.6114 27.1228L19.5941 27.4422L19.5906 27.531C19.5863 27.6378 19.6022 27.6974 19.6382 27.7099C19.6738 27.7224 19.7049 27.7292 19.7316 27.7302C19.9539 27.7392 20.1154 27.7279 20.2161 27.6966C20.3051 27.6677 20.3599 27.6359 20.3804 27.6012C20.3999 27.5648 20.4169 27.5469 20.4313 27.5474C20.4494 27.5481 20.4579 27.561 20.4569 27.586C20.4544 27.6499 20.4198 27.713 20.3533 27.7754C20.2874 27.8384 20.2306 27.869 20.183 27.8671C20.0762 27.8628 19.956 27.8541 19.8222 27.8412C19.6884 27.8282 19.6053 27.821 19.5728 27.8197L19.269 27.8275C19.2382 27.8263 19.2231 27.8184 19.2238 27.8039L19.2248 27.7769C19.2252 27.7682 19.2327 27.7628 19.2473 27.7604C19.2637 27.7594 19.2892 27.7513 19.3241 27.7365C19.359 27.7216 19.383 27.6886 19.3961 27.6374C19.4093 27.5856 19.4191 27.4767 19.4259 27.3107V27.3107ZM26.8465 23.5405L26.7736 23.7102L26.7086 23.8907C26.6922 23.9304 26.676 23.947 26.6599 23.9403C26.6405 23.9324 26.6316 23.9167 26.633 23.8935C26.6345 23.8426 26.6136 23.789 26.5702 23.7328C26.5276 23.6763 26.3897 23.5227 26.1569 23.2721C25.9241 23.0215 25.7191 22.7993 25.542 22.6056C25.5256 22.5875 25.5163 22.5736 25.514 22.5639C25.5112 22.5539 25.5128 22.5416 25.5188 22.5272C25.5245 22.5132 25.5313 22.5053 25.539 22.5035C25.5462 22.5014 25.5678 22.5016 25.6038 22.5038C25.6396 22.5054 25.6671 22.5066 25.6862 22.5077C25.7055 22.5081 25.7364 22.5093 25.779 22.5111C25.8213 22.5122 25.8857 22.513 25.9722 22.5135C26.0587 22.514 26.2492 22.5122 26.5437 22.508C26.8385 22.5032 27.0063 22.4996 27.047 22.4968C27.0869 22.4944 27.1249 22.4836 27.1611 22.4646C27.1969 22.4462 27.2201 22.4265 27.2306 22.4057C27.2416 22.3851 27.2524 22.3688 27.263 22.3568C27.2738 22.3443 27.2876 22.3415 27.3042 22.3484C27.3246 22.3568 27.3271 22.3796 27.3118 22.4166L27.2234 22.5969L27.1527 22.7911C27.1352 22.8335 27.1224 22.86 27.1143 22.8705C27.1057 22.8807 27.096 22.8837 27.0852 22.8792C27.0739 22.8746 27.0677 22.8654 27.0665 22.8517C27.0645 22.8383 27.0652 22.8251 27.0687 22.8121C27.0716 22.7989 27.0703 22.7845 27.0647 22.769C27.0584 22.7538 27.0435 22.7413 27.0198 22.7316C26.9957 22.7216 26.9298 22.7145 26.8222 22.7104C26.7151 22.7065 26.6347 22.7069 26.5812 22.7118C26.553 22.7146 26.5298 22.7381 26.5117 22.7822L26.413 23.0327L26.3682 23.1415C26.3428 23.2032 26.3303 23.2433 26.3309 23.2618C26.3307 23.2805 26.3394 23.2996 26.3573 23.3188C26.3751 23.3381 26.3996 23.3655 26.4308 23.4011C26.4622 23.4361 26.4841 23.4601 26.4962 23.4733C26.5084 23.4865 26.5241 23.5027 26.5431 23.5218C26.5772 23.5566 26.6079 23.5797 26.6353 23.5909C26.6627 23.6022 26.6879 23.6035 26.711 23.5948C26.7337 23.5853 26.7504 23.5715 26.761 23.5532C26.7861 23.5045 26.8097 23.4847 26.8317 23.4938C26.8413 23.4978 26.8477 23.5029 26.8509 23.5092C26.8542 23.515 26.8527 23.5254 26.8465 23.5405V23.5405ZM25.8059 22.7314C25.8009 22.7438 25.8604 22.8142 25.9845 22.9427C26.109 23.0708 26.1795 23.1381 26.1962 23.145C26.2123 23.1516 26.2251 23.1496 26.2344 23.1391C26.2438 23.1285 26.2578 23.1007 26.2764 23.0555L26.3027 22.9919L26.381 22.7951C26.403 22.7419 26.4039 22.7113 26.3841 22.7032C26.3642 22.6949 26.2647 22.6932 26.0856 22.6978C25.9065 22.7025 25.8133 22.7137 25.8059 22.7314V22.7314ZM12.8434 20.3038C12.8434 20.2033 12.9249 20.1218 13.0255 20.1218C13.1261 20.1218 13.2075 20.2033 13.2075 20.3038C13.2075 20.4044 13.1261 20.4858 13.0255 20.4859C12.925 20.4859 12.8435 20.4045 12.8434 20.3038ZM26.9451 20.3038C26.9451 20.2033 27.0266 20.1218 27.1271 20.1218C27.2276 20.1218 27.3091 20.2033 27.3092 20.3038C27.3092 20.4044 27.2277 20.4858 27.1271 20.4859C27.0266 20.4859 26.9451 20.4045 26.9451 20.3038Z" fill="white"/>
</g>
</g>
</g>
</g>
</g>
</g>
</g>
</g>
<defs>
<clipPath id="clip0_1_4">
<rect width="40" height="40" fill="white"/>
</clipPath>
<clipPath id="clip1_1_4">
<rect width="28" height="31.5" fill="white" transform="translate(6 4.25)"/>
</clipPath>
<clipPath id="clip2_1_4">
<rect width="28" height="31.5" fill="white" transform="translate(6 4.25)"/>
</clipPath>
<clipPath id="clip3_1_4">
<rect width="15.7343" height="15.7343" fill="white" transform="translate(12.1329 12.1329)"/>
</clipPath>
<clipPath id="clip4_1_4">
<rect width="15.7343" height="15.7343" fill="white" transform="translate(12.1329 12.1329)"/>
</clipPath>
<clipPath id="clip5_1_4">
<rect width="15.7343" height="15.7343" fill="white" transform="translate(12.1329 12.1329)"/>
</clipPath>
<clipPath id="clip6_1_4">
<rect width="15.7343" height="15.7343" fill="white" transform="translate(12.1329 12.1329)"/>
</clipPath>
<clipPath id="clip7_1_4">
<rect width="15.7343" height="15.7343" fill="white" transform="translate(12.1329 12.1329)"/>
</clipPath>
<clipPath id="clip8_1_4">
<rect width="9.27612" height="9.2715" fill="white" transform="translate(15.3621 15.3643)"/>
</clipPath>
<clipPath id="clip9_1_4">
<rect width="6.49269" height="6.48806" fill="white" transform="translate(15.3621 15.3643)"/>
</clipPath>
</defs>
</svg>
